<?xml version="1.0" standalone="no"?><!DOCTYPE svg PUBLIC "-//W3C//DTD SVG 1.1//EN" "http://www.w3.org/Graphics/SVG/1.1/DTD/svg11.dtd" ><svg xmlns="http://www.w3.org/2000/svg"><metadata></metadata><defs><font id="2.000;UKWN;JosefinSans-Bold" horiz-adv-x="863"><font-face font-family="Josefin Sans" font-weight="700" font-stretch="normal" units-per-em="1000" panose-1="0 0 8 0 0 0 0 0 0 0" ascent="750" descent="-250" x-height="0" bbox="-26 -220 791 789" underline-thickness="50" underline-position="-125" unicode-range="U+0020-007d" /><missing-glyph horiz-adv-x="300"  /><glyph glyph-name="space" unicode=" " d="" /><glyph glyph-name="quotesingle" unicode="&#39;" d="M148 481 l-120 0 l0 253 l124 0 l-4 -253 Z" /><glyph glyph-name="parenleft" unicode="(" d="M75 296 q0 143 48.5 266 q48.5 123 119.5 198 l115 -53 q-63 -72 -100 -176 q-37 -104 -37 -235 q0 -131 37 -234.5 q37 -103.5 100 -175.5 l-115 -54 q-71 76 -119.5 198.5 q-48.5 122.5 -48.5 265.5 Z" /><glyph glyph-name="parenright" unicode=")" d="M333 296 q0 -143 -48.5 -266 q-48.5 -123 -119.5 -198 l-115 53 q63 72 100 176 q37 104 37 235 q0 131 -37 234.5 q-37 103.5 -100 175.5 l115 54 q71 -76 119.5 -198.5 q48.5 -122.5 48.5 -265.5 Z" /><glyph glyph-name="comma" unicode="," d="M100 -122 l-112 0 l45 118 q18 50 34 92 l121 0 l-88 -210 Z" /><glyph glyph-name="period" unicode="." d="M15 72 q0 30 22 51.5 q22 21.5 50 21.5 q26 0 48 -21.5 q22 -21.5 22 -51.5 q0 -31 -21.5 -51.5 q-21.5 -20.5 -48.5 -20.5 q-28 0 -50 20 q-22 20 -22 52 Z" /><glyph glyph-name="semicolon" unicode=";" d="M52 327 q0 30 22 51.5 q22 21.5 49 21.5 q26 0 48 -21.5 q22 -21.5 22 -51.5 q0 -32 -21.5 -52 q-21.5 -20 -48.5 -20 q-28 0 -49.5 20 q-21.5 20 -21.5 52 ZM86 -122 l-112 0 l45 118 q18 50 34 92 l121 0 l-88 -210 Z" /><glyph glyph-name="C" unicode="c" d="M647 61 q-28 -23 -89 -46 q-61 -23 -133 -23 q-115 0 -200 50 q-85 50 -130 134.5 q-45 84.5 -45 185.5 q0 111 45 198 q45 87 126 135.5 q81 48.5 187 48.5 q67 0 124 -18 q57 -18 100 -45 l-57 -137 q-79 60 -162 60 q-56 0 -105 -31 q-49 -31 -78 -84.5 q-29 -53.5 -29 -118.5 q0 -71 27 -124.5 q27 -53.5 77 -83.5 q50 -30 117 -30 q54 0 97 17.5 q43 17.5 68 41.5 l60 -130 Z" /><glyph glyph-name="E" unicode="e" d="M597 736 l0 -140 l-357 0 l0 -157 l316 0 l0 -140 l-316 0 l0 -159 l371 0 l0 -140 l-516 0 l0 736 l502 0 Z" /><glyph glyph-name="L" unicode="l" d="M240 736 l0 -596 l346 0 l0 -140 l-491 0 l0 736 l145 0 Z" /><glyph glyph-name="a" unicode="a" d="M542 437 l0 -437 l-140 0 l0 54 q-63 -66 -146 -66 q-97 0 -157.5 58 q-60.5 58 -60.5 172 q0 72 29.5 126.5 q29.5 54.5 78.5 84.5 q49 30 105 30 q58 0 92 -17.5 q34 -17.5 60 -49.5 l9 45 l130 0 ZM296 102 q73 0 106 66 l0 107 q-12 32 -41.5 51 q-29.5 19 -69.5 19 q-46 0 -78.5 -34 q-32.5 -34 -32.5 -86 q0 -34 16 -62.5 q16 -28.5 42.5 -44.5 q26.5 -16 57.5 -16 Z" /><glyph glyph-name="b" unicode="b" d="M378 459 q57 0 104.5 -27.5 q47.5 -27.5 75.5 -79.5 q28 -52 28 -124 q0 -72 -31 -126.5 q-31 -54.5 -83 -84 q-52 -29.5 -113 -29.5 q-89 0 -147 56 l0 -44 l-140 0 l0 789 l139 0 l0 -382 q28 23 71 37.5 q43 14.5 96 14.5 ZM328 106 q31 0 57.5 16 q26.5 16 42.5 44.5 q16 28.5 16 62.5 q0 52 -34 86 q-34 34 -82 34 q-41 0 -72 -19 q-31 -19 -44 -51 l0 -107 q36 -66 116 -66 Z" /><glyph glyph-name="c" unicode="c" d="M443 39 q-29 -23 -72.5 -37 q-43.5 -14 -85.5 -14 q-114 0 -180.5 61.5 q-66.5 61.5 -66.5 169.5 q0 70 32.5 122.5 q32.5 52.5 85.5 80 q53 27.5 114 27.5 q109 0 177 -58 l-68 -90 q-43 34 -96 34 q-44 0 -74.5 -33 q-30.5 -33 -30.5 -83 q0 -50 33 -83.5 q33 -33.5 86 -33.5 q46 0 76 25 l70 -88 Z" /><glyph glyph-name="d" unicode="d" d="M552 789 l0 -789 l-140 0 l0 46 q-76 -58 -162 -58 q-61 0 -109 29 q-48 29 -75.5 83 q-27.5 54 -27.5 127 q0 72 29.5 124.5 q29.5 52.5 81.5 80 q52 27.5 119 27.5 q43 0 81 -13.5 q38 -13.5 64 -39.5 l0 383 l139 0 ZM296 106 q42 0 70 16.5 q28 16.5 46 49.5 l0 107 q-12 32 -43 51 q-31 19 -73 19 q-47 0 -81.5 -34 q-34.5 -34 -34.5 -86 q0 -34 16 -62.5 q16 -28.5 42.5 -44.5 q26.5 -16 57.5 -16 Z" /><glyph glyph-name="e" unicode="e" d="M290 107 q42 0 87 29 l62 -104 q-36 -20 -76 -32 q-40 -12 -76 -12 q-78 0 -134.5 29.5 q-56.5 29.5 -85.5 83 q-29 53.5 -29 122.5 q0 64 33.5 118 q33.5 54 91.5 85.5 q58 31.5 127 31.5 q94 0 154.5 -55 q60.5 -55 78.5 -157 l-320 -102 q32 -37 87 -37 ZM279 349 q-47 0 -75 -32 q-28 -32 -28 -86 l0 -9 l192 65 q-21 62 -89 62 Z" /><glyph glyph-name="f" unicode="f" d="M114 315 l-74 0 l0 124 l74 0 l0 152 q0 88 50.5 141.5 q50.5 53.5 142.5 53.5 q30 0 64 -9 q34 -9 59 -27 l-59 -101 q-18 22 -49 22 q-31 0 -49.5 -21 q-18.5 -21 -18.5 -63 l0 -148 l132 0 l0 -124 l-132 0 l0 -315 l-140 0 l0 315 Z" /><glyph glyph-name="g" unicode="g" d="M561 437 l0 -437 q0 -62 -35.5 -112.5 q-35.5 -50.5 -96 -79 q-60.5 -28.5 -131.5 -28.5 q-54 0 -94.5 13 q-40.5 13 -65 29 q-24.5 16 -58.5 44 l82 96 q30 -28 59.5 -44 q29.5 -16 74.5 -16 q53 0 89 26.5 q36 26.5 36 73.5 l0 62 q-20 -34 -61.5 -55 q-41.5 -21 -101.5 -21 q-59 0 -109.5 30.5 q-50.5 30.5 -80.5 84 q-30 53.5 -30 118.5 q0 66 31.5 121 q31.5 55 83 86 q51.5 31 108.5 31 q54 0 96 -15.5 q42 -15.5 64 -40.5 l11 34 l129 0 ZM300 102 q84 0 121 66 l0 107 q-14 32 -46.5 51 q-32.5 19 -74.5 19 q-51 0 -86 -34 q-35 -34 -35 -86 q0 -52 35 -87.5 q35 -35.5 86 -35.5 Z" /><glyph glyph-name="h" unicode="h" d="M376 458 q62 0 103.5 -37 q41.5 -37 42.5 -94 l0 -327 l-140 0 l0 275 q-3 64 -64 64 q-48 0 -77 -45 q-29 -45 -29 -116 l0 -178 l-140 0 l0 789 l137 0 l0 -421 q24 42 66.5 66 q42.5 24 100.5 24 Z" /><glyph glyph-name="i" unicode="i" d="M212 437 l0 -437 l-140 0 l0 437 l140 0 ZM69 592 q0 30 23.5 50.5 q23.5 20.5 53.5 20.5 q29 0 52 -20.5 q23 -20.5 23 -50.5 q0 -30 -23 -50 q-23 -20 -52 -20 q-30 0 -53.5 20 q-23.5 20 -23.5 50 Z" /><glyph glyph-name="m" unicode="m" d="M648 459 q64 0 102.5 -36 q38.5 -36 40.5 -95 l0 -328 l-139 0 l0 270 q-2 33 -11 49.5 q-9 16.5 -35 18.5 q-49 0 -76.5 -47.5 q-27.5 -47.5 -27.5 -111.5 l0 -179 l-140 0 l0 270 q-2 33 -12 49.5 q-10 16.5 -37 18.5 q-47 0 -74 -47.5 q-27 -47.5 -27 -109.5 l0 -181 l-140 0 l0 437 l127 0 l10 -69 q53 91 158 91 q53 0 87.5 -21.5 q34.5 -21.5 47.5 -63.5 q28 39 66.5 62 q38.5 23 79.5 23 Z" /><glyph glyph-name="n" unicode="n" d="M376 458 q62 0 103.5 -37 q41.5 -37 42.5 -94 l0 -327 l-140 0 l0 275 q-3 64 -64 64 q-48 0 -77 -45 q-29 -45 -29 -116 l0 -178 l-140 0 l0 437 l127 0 l10 -70 q24 43 66.5 67 q42.5 24 100.5 24 Z" /><glyph glyph-name="o" unicode="o" d="M38 224 q0 67 31.5 120 q31.5 53 89 83.5 q57.5 30.5 130.5 30.5 q73 0 128.5 -30.5 q55.5 -30.5 85.5 -83.5 q30 -53 30 -120 q0 -67 -30 -121 q-30 -54 -85.5 -84.5 q-55.5 -30.5 -130.5 -30.5 q-73 0 -129.5 28.5 q-56.5 28.5 -88 81.5 q-31.5 53 -31.5 126 ZM179 223 q0 -52 30 -86.5 q30 -34.5 76 -34.5 q48 0 77.5 34 q29.5 34 29.5 87 q0 53 -29.5 87 q-29.5 34 -77.5 34 q-46 0 -76 -34.5 q-30 -34.5 -30 -86.5 Z" /><glyph glyph-name="r" unicode="r" d="M209 337 q18 35 49.5 63 q31.5 28 64.5 43.5 q33 15.5 52 15.5 l-7 -140 q-6 1 -17 1 q-42 0 -74 -22 q-32 -22 -49 -56.5 q-17 -34.5 -17 -70.5 l0 -171 l-139 0 l0 437 l126 0 l11 -100 Z" /><glyph glyph-name="s" unicode="s" d="M214 -9 q-54 0 -101 19 q-47 19 -78 53 l58 77 q58 -54 109 -54 q27 0 43.5 8.5 q16.5 8.5 16.5 25.5 q0 20 -19 30.5 q-19 10.5 -42.5 17.5 q-23.5 7 -31.5 9 q-57 18 -85 53.5 q-28 35.5 -28 81.5 q0 35 18.5 68.5 q18.5 33.5 57.5 55 q39 21.5 97 21.5 q54 0 92 -11 q38 -11 73 -36 l-53 -82 q-20 16 -44.5 26.5 q-24.5 10.5 -44.5 10.5 q-24 0 -39 -10 q-15 -10 -15 -24 q-1 -21 17.5 -31.5 q18.5 -10.5 57.5 -21.5 q6 -2 12.5 -4 q6.5 -2 13.5 -4 q103 -34 103 -124 q0 -42 -21 -77 q-21 -35 -63.5 -56.5 q-42.5 -21.5 -103.5 -21.5 Z" /><glyph glyph-name="t" unicode="t" d="M253 629 l0 -190 l106 0 l0 -109 l-106 0 l0 -330 l-140 0 l0 330 l-68 0 l0 109 l68 0 l0 190 l140 0 Z" /><glyph glyph-name="u" unicode="u" d="M512 437 l0 -437 l-127 0 l-10 70 q-23 -42 -64.5 -66.5 q-41.5 -24.5 -97.5 -24.5 q-60 0 -100 37 q-40 37 -41 94 l0 327 l140 0 l0 -275 q3 -64 59 -64 q46 0 73.5 45 q27.5 45 27.5 116 l0 178 l140 0 Z" /><glyph glyph-name="v" unicode="v" d="M524 437 l-248 -446 l-4 0 l-262 446 l166 0 l102 -208 l90 208 l156 0 Z" /><glyph glyph-name="x" unicode="x" d="M347 0 l-101 131 l-92 -131 l-139 0 l162 220 l-167 217 l172 0 l96 -126 l75 126 l139 0 l-150 -209 l174 -228 l-169 0 Z" /><glyph glyph-name="y" unicode="y" d="M524 437 l-282 -647 l-135 0 l105 233 l-202 414 l157 0 l115 -258 l116 258 l126 0 Z" /><glyph glyph-name="braceleft" unicode="{" d="M314 639 q-23 0 -33.5 -6.5 q-10.5 -6.5 -15 -27 q-4.5 -20.5 -4.5 -66.5 l0 -98 q0 -51 -20.5 -85 q-20.5 -34 -45.5 -51 q25 -20 45.5 -49.5 q20.5 -29.5 20.5 -67.5 l0 -120 q0 -46 4.5 -66.5 q4.5 -20.5 15 -26.5 q10.5 -6 33.5 -6 l37 0 l0 -122 l-79 0 q-57 0 -85 4 q-28 4 -49.5 30 q-21.5 26 -21.5 86 l0 165 q0 48 -21.5 82 q-21.5 34 -59.5 35 l0 116 q39 1 60 34.5 q21 33.5 21 82.5 l0 158 q0 59 21 85 q21 26 50 31 q29 5 85 5 l79 0 l0 -122 l-37 0 Z" /><glyph glyph-name="braceright" unicode="}" d="M87 -31 q23 0 33.5 6.5 q10.5 6.5 15 27 q4.5 20.5 4.5 66.5 l0 98 q0 51 20.5 85 q20.5 34 45.5 51 q-25 20 -45.5 49.5 q-20.5 29.5 -20.5 67.5 l0 120 q0 46 -4.5 66.5 q-4.5 20.5 -15 26.5 q-10.5 6 -33.5 6 l-37 0 l0 122 l79 0 q57 0 85 -4 q28 -4 49.5 -30 q21.5 -26 21.5 -86 l0 -165 q0 -48 21.5 -82 q21.5 -34 59.5 -35 l0 -116 q-39 -1 -60 -34.5 q-21 -33.5 -21 -82.5 l0 -158 q0 -59 -21 -85 q-21 -26 -50 -31 q-29 -5 -85 -5 l-79 0 l0 122 l37 0 Z" /></font>
</defs>
</svg>
