<?xml version="1.0" standalone="no"?><!DOCTYPE svg PUBLIC "-//W3C//DTD SVG 1.1//EN" "http://www.w3.org/Graphics/SVG/1.1/DTD/svg11.dtd" ><svg xmlns="http://www.w3.org/2000/svg"><metadata></metadata><defs><font id="2.000;UKWN;JosefinSans-Regular" horiz-adv-x="825"><font-face font-family="Josefin Sans" font-weight="400" font-stretch="normal" units-per-em="1000" panose-1="0 0 5 0 0 0 0 0 0 0" ascent="750" descent="-250" x-height="0" bbox="-12 -206 745 775" underline-thickness="50" underline-position="-125" unicode-range="U+0020-007d" /><missing-glyph horiz-adv-x="300"  /><glyph glyph-name="space" unicode=" " d="" /><glyph glyph-name="quotesingle" unicode="&#39;" d="M124 478 l-81 0 l0 251 l85 0 l-4 -251 Z" /><glyph glyph-name="parenleft" unicode="(" d="M102 295 q0 142 48.5 264 q48.5 122 118.5 196 l73 -41 q-63 -74 -103 -181 q-40 -107 -40 -238 q0 -131 40 -238.5 q40 -107.5 103 -180.5 l-73 -42 q-70 75 -118.5 197 q-48.5 122 -48.5 264 Z" /><glyph glyph-name="parenright" unicode=")" d="M313 295 q0 -142 -48 -264.5 q-48 -122.5 -118 -196.5 l-74 42 q63 73 103 180.5 q40 107.5 40 238.5 q0 131 -40 238 q-40 107 -103 180 l74 42 q70 -75 118 -196.5 q48 -121.5 48 -263.5 Z" /><glyph glyph-name="comma" unicode="," d="M108 -52 l-29 -70 l-76 0 l26 70 q45 121 52 140 l85 0 l-58 -140 Z" /><glyph glyph-name="period" unicode="." d="M34 53 q0 22 16 38 q16 16 37 16 q19 0 35.5 -16 q16.5 -16 16.5 -38 q0 -23 -16 -38 q-16 -15 -36 -15 q-21 0 -37 15 q-16 15 -16 38 Z" /><glyph glyph-name="semicolon" unicode=";" d="M65 306 q0 22 16.5 38 q16.5 16 36.5 16 q19 0 35 -16 q16 -16 16 -38 q0 -23 -15.5 -38 q-15.5 -15 -35.5 -15 q-21 0 -37 15 q-16 15 -16 38 ZM64 -122 l-76 0 q35 92 67 180 l11 30 l85 0 l-87 -210 Z" /><glyph glyph-name="C" unicode="c" d="M635 54 q-35 -23 -88.5 -42.5 q-53.5 -19.5 -116.5 -19.5 q-111 0 -195.5 49 q-84.5 49 -130 132 q-45.5 83 -45.5 183 q0 107 46 192.5 q46 85.5 127.5 134 q81.5 48.5 184.5 48.5 q61 0 114 -16 q53 -16 95 -42 l-39 -91 q-83 56 -167 56 q-70 0 -129.5 -37 q-59.5 -37 -95 -100.5 q-35.5 -63.5 -35.5 -139.5 q0 -78 32.5 -141 q32.5 -63 93 -98.5 q60.5 -35.5 139.5 -35.5 q97 0 169 55 l41 -87 Z" /><glyph glyph-name="E" unicode="e" d="M574 723 l0 -93 l-373 0 l0 -220 l333 0 l0 -93 l-333 0 l0 -223 l387 0 l0 -94 l-484 0 l0 723 l470 0 Z" /><glyph glyph-name="L" unicode="l" d="M201 723 l0 -629 l368 0 l0 -94 l-465 0 l0 723 l97 0 Z" /><glyph glyph-name="a" unicode="a" d="M506 414 l0 -414 l-93 0 l0 68 q-22 -29 -64 -53.5 q-42 -24.5 -95 -24.5 q-59 0 -106.5 25.5 q-47.5 25.5 -75 74.5 q-27.5 49 -27.5 117 q0 68 28.5 118.5 q28.5 50.5 77 78 q48.5 27.5 107.5 27.5 q53 0 92 -23 q39 -23 63 -60 l7 66 l86 0 ZM279 67 q51 0 87.5 28.5 q36.5 28.5 46.5 77.5 l0 82 q-12 44 -50 71.5 q-38 27.5 -87 27.5 q-37 0 -68.5 -18 q-31.5 -18 -50 -50.5 q-18.5 -32.5 -18.5 -73.5 q0 -40 19 -73 q19 -33 51 -52.5 q32 -19.5 70 -19.5 Z" /><glyph glyph-name="b" unicode="b" d="M346 431 q56 0 102.5 -27 q46.5 -27 73.5 -76 q27 -49 27 -114 q0 -68 -29 -119 q-29 -51 -78.5 -78 q-49.5 -27 -107.5 -27 q-51 0 -92.5 20 q-41.5 20 -67.5 54 l0 -64 l-93 0 l0 775 l93 0 l0 -416 q26 33 71.5 52.5 q45.5 19.5 100.5 19.5 ZM314 70 q61 0 100.5 41 q39.5 41 39.5 103 q0 40 -18.5 72.5 q-18.5 32.5 -50.5 51.5 q-32 19 -71 19 q-51 0 -89.5 -27.5 q-38.5 -27.5 -50.5 -72.5 l0 -84 q12 -45 50 -74 q38 -29 90 -29 Z" /><glyph glyph-name="c" unicode="c" d="M417 39 q-28 -23 -66.5 -36 q-38.5 -13 -78.5 -13 q-67 0 -118.5 27 q-51.5 27 -80 76.5 q-28.5 49.5 -28.5 114.5 q0 64 30 113.5 q30 49.5 80 76.5 q50 27 108 27 q95 0 157 -52 l-47 -61 q-20 15 -46 25.5 q-26 10.5 -56 10.5 q-37 0 -67.5 -18.5 q-30.5 -18.5 -48 -50.5 q-17.5 -32 -17.5 -71 q0 -39 18.5 -71 q18.5 -32 50.5 -51 q32 -19 73 -19 q51 0 89 30 l48 -58 Z" /><glyph glyph-name="d" unicode="d" d="M513 775 l0 -775 l-94 0 l0 65 q-30 -35 -73.5 -55 q-43.5 -20 -95.5 -20 q-58 0 -105 28 q-47 28 -73.5 78.5 q-26.5 50.5 -26.5 116.5 q0 67 28 116.5 q28 49.5 77 75.5 q49 26 111 26 q47 0 90.5 -19.5 q43.5 -19.5 68.5 -53.5 l0 417 l93 0 ZM279 70 q54 0 91.5 29 q37.5 29 48.5 78 l0 78 q-12 45 -51 73.5 q-39 28.5 -89 28.5 q-38 0 -70 -18.5 q-32 -18.5 -51 -51 q-19 -32.5 -19 -73.5 q0 -40 19 -73 q19 -33 51 -52 q32 -19 70 -19 Z" /><glyph glyph-name="e" unicode="e" d="M275 70 q52 0 101 36 l43 -69 q-33 -22 -71.5 -34.5 q-38.5 -12.5 -74.5 -12.5 q-69 0 -120.5 28.5 q-51.5 28.5 -79.5 78.5 q-28 50 -28 113 q0 61 30.5 111.5 q30.5 50.5 83.5 80 q53 29.5 116 29.5 q81 0 135.5 -47.5 q54.5 -47.5 74.5 -132.5 l-328 -115 q18 -31 48.5 -48.5 q30.5 -17.5 69.5 -17.5 ZM268 357 q-57 0 -94 -40 q-37 -40 -37 -102 q0 -15 1 -23 l241 89 q-15 34 -42.5 55 q-27.5 21 -68.5 21 Z" /><glyph glyph-name="f" unicode="f" d="M115 331 l-71 0 l0 84 l71 0 l0 174 q0 90 41 138 q41 48 120 48 q22 0 47 -6.5 q25 -6.5 44 -18.5 l-40 -68 q-15 16 -42 16 q-38 0 -57.5 -26 q-19.5 -26 -19.5 -84 l0 -173 l132 0 l0 -84 l-132 0 l0 -331 l-93 0 l0 331 Z" /><glyph glyph-name="g" unicode="g" d="M518 414 l0 -417 q0 -57 -29 -103 q-29 -46 -82.5 -73 q-53.5 -27 -125.5 -27 q-63 0 -108.5 21 q-45.5 21 -91.5 62 l55 64 q34 -32 68 -48.5 q34 -16.5 75 -16.5 q69 0 106.5 33 q37.5 33 38.5 89 l1 78 q-23 -39 -67.5 -62.5 q-44.5 -23.5 -102.5 -23.5 q-57 0 -105 29 q-48 29 -76.5 79 q-28.5 50 -28.5 111 q0 63 29.5 113.5 q29.5 50.5 79.5 79.5 q50 29 107 29 q53 0 98 -21 q45 -21 67 -54 l7 58 l85 0 ZM282 67 q53 0 92 29 q39 29 51 76 l0 82 q-14 45 -53 72.5 q-39 27.5 -90 27.5 q-61 0 -102 -40 q-41 -40 -41 -102 q0 -40 19 -73 q19 -33 52 -52.5 q33 -19.5 72 -19.5 Z" /><glyph glyph-name="h" unicode="h" d="M338 430 q58 0 96 -34.5 q38 -34.5 39 -89.5 l0 -306 l-94 0 l0 274 q-2 35 -21 55 q-19 20 -57 21 q-36 0 -65 -20 q-29 -20 -45.5 -56 q-16.5 -36 -16.5 -80 l0 -194 l-93 0 l0 775 l91 0 l0 -436 q23 41 66.5 66 q43.5 25 99.5 25 Z" /><glyph glyph-name="i" unicode="i" d="M174 414 l0 -414 l-93 0 l0 414 l93 0 ZM74 563 q0 22 17 37 q17 15 39 15 q22 0 38.5 -15 q16.5 -15 16.5 -37 q0 -22 -16.5 -37 q-16.5 -15 -38.5 -15 q-22 0 -39 15 q-17 15 -17 37 Z" /><glyph glyph-name="m" unicode="m" d="M612 431 q60 0 95.5 -34 q35.5 -34 37.5 -90 l0 -307 l-93 0 l0 273 q-3 73 -66 77 q-36 0 -64.5 -21.5 q-28.5 -21.5 -44.5 -56.5 q-16 -35 -17 -75 l0 -197 l-94 0 l0 273 q-3 73 -68 77 q-35 0 -63.5 -21.5 q-28.5 -21.5 -44.5 -57 q-16 -35.5 -16 -75.5 l0 -196 l-93 0 l0 414 l84 0 l7 -78 q24 45 65.5 70 q41.5 25 94.5 25 q50 0 84 -23.5 q34 -23.5 44 -64.5 q26 41 66 64.5 q40 23.5 86 23.5 Z" /><glyph glyph-name="n" unicode="n" d="M338 430 q58 0 96 -34.5 q38 -34.5 39 -89.5 l0 -306 l-94 0 l0 274 q-2 35 -21 55 q-19 20 -57 21 q-55 0 -91 -44 q-36 -44 -36 -112 l0 -194 l-93 0 l0 414 l84 0 l6 -80 q22 45 66 70.5 q44 25.5 101 25.5 Z" /><glyph glyph-name="o" unicode="o" d="M45 211 q0 61 29.5 111.5 q29.5 50.5 82 79.5 q52.5 29 118.5 29 q66 0 117.5 -29 q51.5 -29 80 -79 q28.5 -50 28.5 -112 q0 -62 -28.5 -112.5 q-28.5 -50.5 -80.5 -79.5 q-52 -29 -119 -29 q-65 0 -117 27.5 q-52 27.5 -81.5 77.5 q-29.5 50 -29.5 116 ZM139 210 q0 -39 17.5 -72 q17.5 -33 48 -52 q30.5 -19 67.5 -19 q58 0 96 41 q38 41 38 102 q0 61 -38 102.5 q-38 41.5 -96 41.5 q-38 0 -68 -19.5 q-30 -19.5 -47.5 -52.5 q-17.5 -33 -17.5 -72 Z" /><glyph glyph-name="r" unicode="r" d="M171 316 q16 34 45.5 60 q29.5 26 62.5 40 q33 14 58 15 l-4 -93 q-45 2 -81.5 -18 q-36.5 -20 -57 -55.5 q-20.5 -35.5 -20.5 -75.5 l0 -189 l-93 0 l0 414 l83 0 l7 -98 Z" /><glyph glyph-name="s" unicode="s" d="M198 -9 q-46 0 -87.5 16 q-41.5 16 -67.5 47 l40 54 q25 -24 52.5 -37 q27.5 -13 54.5 -13 q33 0 54 13 q21 13 21 40 q0 21 -13 34 q-13 13 -29.5 19 q-16.5 6 -55.5 18 q-106 34 -106 121 q0 52 38.5 89 q38.5 37 107.5 37 q44 0 78 -11 q34 -11 63 -35 l-37 -57 q-16 17 -40.5 27 q-24.5 10 -46.5 11 q-28 0 -48 -13.5 q-20 -13.5 -20 -36.5 q0 -19 13 -31.5 q13 -12.5 27 -18 q14 -5.5 55 -18.5 q51 -17 79.5 -44 q28.5 -27 28.5 -73 q0 -60 -42 -99 q-42 -39 -119 -39 Z" /><glyph glyph-name="t" unicode="t" d="M215 596 l0 -183 l113 0 l0 -74 l-113 0 l0 -339 l-94 0 l0 339 l-76 0 l0 74 l76 0 l0 183 l94 0 Z" /><glyph glyph-name="u" unicode="u" d="M466 414 l0 -414 l-84 0 l-6 79 q-21 -42 -65 -68.5 q-44 -26.5 -98 -26.5 q-57 0 -93.5 34.5 q-36.5 34.5 -38.5 89.5 l0 306 l93 0 l0 -273 q2 -35 20.5 -55.5 q18.5 -20.5 55.5 -21.5 q34 0 62 20.5 q28 20.5 44.5 56.5 q16.5 36 16.5 80 l0 193 l93 0 Z" /><glyph glyph-name="v" unicode="v" d="M475 414 l-221 -426 l-5 0 l-230 426 l111 0 l125 -264 l116 264 l104 0 Z" /><glyph glyph-name="x" unicode="x" d="M334 0 l-111 146 l-104 -146 l-95 0 l152 208 l-157 206 l116 0 l109 -144 l93 144 l94 0 l-144 -201 l160 -213 l-113 0 Z" /><glyph glyph-name="y" unicode="y" d="M475 414 l-267 -613 l-92 0 l95 213 l-192 400 l105 0 l134 -295 l131 295 l86 0 Z" /><glyph glyph-name="braceleft" unicode="{" d="M263 673 q-21 0 -32 -8 q-11 -8 -15.5 -30 q-4.5 -22 -4.5 -66 l0 -117 q0 -63 -19 -97 q-19 -34 -47 -52 q66 -46 66 -137 l0 -131 q0 -44 4.5 -66 q4.5 -22 15.5 -30 q11 -8 32 -8 l45 0 l0 -82 l-64 0 q-48 0 -71.5 5 q-23.5 5 -41 33.5 q-17.5 28.5 -17.5 93.5 l0 159 q0 48 -20.5 85 q-20.5 37 -60.5 38 l0 82 q40 1 60.5 38 q20.5 37 20.5 86 l0 167 q0 58 17.5 84 q17.5 26 42 31 q24.5 5 70.5 5 l64 0 l0 -83 l-45 0 Z" /><glyph glyph-name="braceright" unicode="}" d="M109 -69 q21 0 32 8 q11 8 15.5 30 q4.5 22 4.5 67 l0 131 q0 54 20 86 q20 32 46 49 q-66 46 -66 137 l0 131 q0 44 -4.5 65.5 q-4.5 21.5 -15 29.5 q-10.5 8 -32.5 8 l-45 0 l0 83 l64 0 q47 0 70.5 -4.5 q23.5 -4.5 41.5 -30.5 q18 -26 18 -85 l0 -158 q0 -52 18 -93.5 q18 -41.5 62 -42.5 l0 -83 q-44 -1 -62 -42 q-18 -41 -18 -94 l0 -155 q0 -58 -17.5 -84 q-17.5 -26 -41.5 -30.5 q-24 -4.5 -71 -4.5 l-64 0 l0 82 l45 0 Z" /></font>
</defs>
</svg>
